<svg version="1.1" xmlns="http://www.w3.org/2000/svg" xmlns:xlink="http://www.w3.org/1999/xlink" width="34.46757" height="133.78571" viewBox="0,0,34.46757,133.78571"><g transform="translate(-340.85386,-174.26379)"><g stroke-miterlimit="10"><path d="M355.14284,303.87092l-2.42857,1.14286l-1.42857,-0.57143l-4.42857,-2l-0.07143,-1.5l-1.78571,-1.78571v-30.42857l2.57143,-2.57143h16.57143l1.71429,-1.71429v-37.57143l1.85714,-1.85714v-28.28572l1.42857,-1.42857v-19.14285l1.14286,-1.14285h4.28572" fill="none" stroke="#00ff27" stroke-width="1.5" stroke-linecap="round"/><path d="M355.28571,307.2995l-2.42857,-2.42857" fill="none" stroke="#00ff27" stroke-width="1.5" stroke-linecap="round"/><g stroke-width="1" stroke-linecap="butt"><path d="M365.35386,192.81429v-7.63506h7.63506v7.63506z" fill="#00ff0e" stroke="#000000"/><path d="M365.35386,186.64489v-1.46566h7.66915v1.46566z" fill="#ff0000" stroke="#000000"/><text transform="translate(366.44457,186.35695) scale(0.03472,0.03472)" font-size="40" xml:space="preserve" fill="#000000" stroke="#000000" font-family="Sans Serif" font-weight="normal" text-anchor="start"><tspan x="0" dy="0">国家高速</tspan></text><text transform="translate(366.02306,190.08584) scale(0.08301,0.08301)" font-size="40" xml:space="preserve" fill="#000000" stroke="none" font-family="Sans Serif" font-weight="normal" text-anchor="start"><tspan x="0" dy="0">G45</tspan></text><text transform="translate(366.10373,192.3166) scale(0.03813,0.03813)" font-size="40" xml:space="preserve" fill="#000000" stroke="#000000" font-family="Sans Serif" font-weight="normal" text-anchor="start"><tspan x="0" dy="0">大广高速</tspan></text></g><g stroke-width="1" stroke-linecap="butt"><path d="M362.49672,257.81429v-7.63506h7.63506v7.63506z" fill="#00ff0e" stroke="#000000"/><path d="M362.49672,251.64489v-1.46566h7.66915v1.46566z" fill="#ff0000" stroke="#000000"/><text transform="translate(363.58743,251.35695) scale(0.03472,0.03472)" font-size="40" xml:space="preserve" fill="#000000" stroke="#000000" font-family="Sans Serif" font-weight="normal" text-anchor="start"><tspan x="0" dy="0">国家高速</tspan></text><text transform="translate(363.16592,255.08583) scale(0.08301,0.08301)" font-size="40" xml:space="preserve" fill="#000000" stroke="none" font-family="Sans Serif" font-weight="normal" text-anchor="start"><tspan x="0" dy="0">G45</tspan></text><text transform="translate(363.24659,257.3166) scale(0.03813,0.03813)" font-size="40" xml:space="preserve" fill="#000000" stroke="#000000" font-family="Sans Serif" font-weight="normal" text-anchor="start"><tspan x="0" dy="0">大广高速</tspan></text></g><g stroke-width="1" stroke-linecap="butt"><path d="M344.49672,306.24286v-7.63506h7.63506v7.63506z" fill="#00ff0e" stroke="#000000"/><path d="M344.49672,300.07346v-1.46566h7.66915v1.46566z" fill="#ff0000" stroke="#000000"/><text transform="translate(345.58743,299.78551) scale(0.03472,0.03472)" font-size="40" xml:space="preserve" fill="#000000" stroke="#000000" font-family="Sans Serif" font-weight="normal" text-anchor="start"><tspan x="0" dy="0">国家高速</tspan></text><text transform="translate(345.16592,303.51441) scale(0.08301,0.08301)" font-size="40" xml:space="preserve" fill="#000000" stroke="none" font-family="Sans Serif" font-weight="normal" text-anchor="start"><tspan x="0" dy="0">G45</tspan></text><text transform="translate(345.24659,305.74517) scale(0.03813,0.03813)" font-size="40" xml:space="preserve" fill="#000000" stroke="#000000" font-family="Sans Serif" font-weight="normal" text-anchor="start"><tspan x="0" dy="0">大广高速</tspan></text></g><g stroke-width="1" stroke-linecap="butt"><path d="M341.35386,277.38572v-7.63506h7.63506v7.63506z" fill="#00ff0e" stroke="#000000"/><path d="M341.35386,271.21632v-1.46566h7.66915v1.46566z" fill="#ff0000" stroke="#000000"/><text transform="translate(342.44457,270.92838) scale(0.03472,0.03472)" font-size="40" xml:space="preserve" fill="#000000" stroke="#000000" font-family="Sans Serif" font-weight="normal" text-anchor="start"><tspan x="0" dy="0">国家高速</tspan></text><text transform="translate(342.02306,274.65727) scale(0.08301,0.08301)" font-size="40" xml:space="preserve" fill="#000000" stroke="none" font-family="Sans Serif" font-weight="normal" text-anchor="start"><tspan x="0" dy="0">G45</tspan></text><text transform="translate(342.10373,276.88803) scale(0.03813,0.03813)" font-size="40" xml:space="preserve" fill="#000000" stroke="#000000" font-family="Sans Serif" font-weight="normal" text-anchor="start"><tspan x="0" dy="0">大广高速</tspan></text></g></g></g></svg>