<svg version="1.1" xmlns="http://www.w3.org/2000/svg" xmlns:xlink="http://www.w3.org/1999/xlink" width="31.64775" height="166.25" viewBox="0,0,31.64775,166.25"><g transform="translate(-346.65475,-152.88333)"><g stroke-miterlimit="10"><path d="M356.63334,153.63333h4.6v3.8l1.9,1.9l1.1,4.5l1.8,1.8v1.4h3.2l2.4,1.4h2.8v19l-1,1.8h-4.6l-1.2,2.6l-2.6,1.6l-3,2.2v15h-2.48572v7.05714h4.57143l-0.14286,-2.57143h-4.28571" fill="none" stroke="#00ff96" stroke-width="1.5" stroke-linecap="round"/><path d="M359.54762,217.54762v17.28572v4.85715l-2.92857,2.92857v20.21428l-1.78572,4l-2.85715,4.57143v20.14285v2.14286l3.5,3.5v17.21429l-1.96428,1.96428h-2.96429l-1.44643,1.44643h-1.69643" fill="none" stroke="#00ff96" stroke-width="1.5" stroke-linecap="round"/><path d="M356.40476,262.83333v8.14286l-3.28571,6.14285" fill="none" stroke="#00ff96" stroke-width="1.5" stroke-linecap="round"/><path d="M351.69048,293.40476v2.57143h6.28571v2.14285h-4.28571v3l1.42858,1.42857" fill="none" stroke="#00ff96" stroke-width="1.5" stroke-linecap="round"/><g stroke-width="1" stroke-linecap="butt"><path d="M370.13335,182.83333v-7.63506h7.63506v7.63506z" fill="#00ff0e" stroke="#000000"/><path d="M370.13335,176.66393v-1.46566h7.66915v1.46566z" fill="#ff0000" stroke="#000000"/><text transform="translate(371.22407,176.37599) scale(0.03472,0.03472)" font-size="40" xml:space="preserve" fill="#000000" stroke="#000000" font-family="Sans Serif" font-weight="normal" text-anchor="start"><tspan x="0" dy="0">国家高速</tspan></text><text transform="translate(371.44614,180.1818) scale(0.08301,0.08301)" font-size="40" xml:space="preserve" fill="#000000" stroke="none" font-family="Sans Serif" font-weight="normal" text-anchor="start"><tspan x="0" dy="0">G4</tspan></text><text transform="translate(370.74989,182.26231) scale(0.03313,0.03313)" font-size="40" xml:space="preserve" fill="#000000" stroke="#000000" font-family="Sans Serif" font-weight="normal" text-anchor="start"><tspan x="0" dy="0">京港澳高速</tspan></text></g><g stroke-width="1" stroke-linecap="butt"><path d="M358.13335,205.23333v-7.63506h7.63506v7.63506z" fill="#00ff0e" stroke="#000000"/><path d="M358.13335,199.06393v-1.46566h7.66915v1.46566z" fill="#ff0000" stroke="#000000"/><text transform="translate(359.22407,198.77599) scale(0.03472,0.03472)" font-size="40" xml:space="preserve" fill="#000000" stroke="#000000" font-family="Sans Serif" font-weight="normal" text-anchor="start"><tspan x="0" dy="0">国家高速</tspan></text><text transform="translate(359.44614,202.5818) scale(0.08301,0.08301)" font-size="40" xml:space="preserve" fill="#000000" stroke="none" font-family="Sans Serif" font-weight="normal" text-anchor="start"><tspan x="0" dy="0">G4</tspan></text><text transform="translate(358.74989,204.66231) scale(0.03313,0.03313)" font-size="40" xml:space="preserve" fill="#000000" stroke="#000000" font-family="Sans Serif" font-weight="normal" text-anchor="start"><tspan x="0" dy="0">京港澳高速</tspan></text></g><g stroke-width="1" stroke-linecap="butt"><path d="M356.33335,234.63333v-7.63506h7.63506v7.63506z" fill="#00ff0e" stroke="#000000"/><path d="M356.33335,228.46393v-1.46566h7.66915v1.46566z" fill="#ff0000" stroke="#000000"/><text transform="translate(357.42407,228.17599) scale(0.03472,0.03472)" font-size="40" xml:space="preserve" fill="#000000" stroke="#000000" font-family="Sans Serif" font-weight="normal" text-anchor="start"><tspan x="0" dy="0">国家高速</tspan></text><text transform="translate(357.64614,231.9818) scale(0.08301,0.08301)" font-size="40" xml:space="preserve" fill="#000000" stroke="none" font-family="Sans Serif" font-weight="normal" text-anchor="start"><tspan x="0" dy="0">G4</tspan></text><text transform="translate(356.94989,234.06231) scale(0.03313,0.03313)" font-size="40" xml:space="preserve" fill="#000000" stroke="#000000" font-family="Sans Serif" font-weight="normal" text-anchor="start"><tspan x="0" dy="0">京港澳高速</tspan></text></g><g stroke-width="1" stroke-linecap="butt"><path d="M348.73335,289.83333v-7.63506h7.63506v7.63506z" fill="#00ff0e" stroke="#000000"/><path d="M348.73335,283.66393v-1.46566h7.66915v1.46566z" fill="#ff0000" stroke="#000000"/><text transform="translate(349.82407,283.37599) scale(0.03472,0.03472)" font-size="40" xml:space="preserve" fill="#000000" stroke="#000000" font-family="Sans Serif" font-weight="normal" text-anchor="start"><tspan x="0" dy="0">国家高速</tspan></text><text transform="translate(350.04614,287.1818) scale(0.08301,0.08301)" font-size="40" xml:space="preserve" fill="#000000" stroke="none" font-family="Sans Serif" font-weight="normal" text-anchor="start"><tspan x="0" dy="0">G4</tspan></text><text transform="translate(349.34988,289.2623) scale(0.03313,0.03313)" font-size="40" xml:space="preserve" fill="#000000" stroke="#000000" font-family="Sans Serif" font-weight="normal" text-anchor="start"><tspan x="0" dy="0">京港澳高速</tspan></text></g><g stroke-width="1" stroke-linecap="butt"><path d="M351.73335,318.63333v-7.63506h7.63506v7.63506z" fill="#00ff0e" stroke="#000000"/><path d="M351.73335,312.46393v-1.46566h7.66915v1.46566z" fill="#ff0000" stroke="#000000"/><text transform="translate(352.82407,312.17599) scale(0.03472,0.03472)" font-size="40" xml:space="preserve" fill="#000000" stroke="#000000" font-family="Sans Serif" font-weight="normal" text-anchor="start"><tspan x="0" dy="0">国家高速</tspan></text><text transform="translate(353.04614,315.9818) scale(0.08301,0.08301)" font-size="40" xml:space="preserve" fill="#000000" stroke="none" font-family="Sans Serif" font-weight="normal" text-anchor="start"><tspan x="0" dy="0">G4</tspan></text><text transform="translate(352.34988,318.06231) scale(0.03313,0.03313)" font-size="40" xml:space="preserve" fill="#000000" stroke="#000000" font-family="Sans Serif" font-weight="normal" text-anchor="start"><tspan x="0" dy="0">京港澳高速</tspan></text></g></g></g></svg>