<svg version="1.1" xmlns="http://www.w3.org/2000/svg" xmlns:xlink="http://www.w3.org/1999/xlink" width="127.60001" height="38.63384" viewBox="0,0,127.60001,38.63384"><g transform="translate(-37.14167,-124.70662)"><g stroke-miterlimit="10"><path d="M156.39168,139.49048h7.6" fill="none" stroke="#ff00b3" stroke-width="1.5" stroke-linecap="round"/><g stroke-width="1" stroke-linecap="butt"><path d="M148.04169,132.84168v-7.63506h10.38506v7.63506z" fill="#00ff0e" stroke="#000000"/><path d="M148.04169,126.6723v-1.46566h10.33581v1.46566z" fill="#ff0000" stroke="#000000"/><text transform="translate(150.46574,126.46769) scale(0.03472,0.03472)" font-size="40" xml:space="preserve" fill="#000000" stroke="#000000" font-family="Sans Serif" font-weight="normal" text-anchor="start"><tspan x="0" dy="0">国家高速</tspan></text><text transform="translate(148.95447,129.86469) scale(0.07541,0.07541)" font-size="40" xml:space="preserve" fill="#000000" stroke="none" font-family="Sans Serif" font-weight="normal" text-anchor="start"><tspan x="0" dy="0">G0711</tspan></text><text transform="translate(149.95822,131.76065) scale(0.03813,0.03813)" font-size="40" xml:space="preserve" fill="#000000" stroke="#000000" font-family="Sans Serif" font-weight="normal" text-anchor="start"><tspan x="0" dy="0">喀什支线</tspan></text></g><path d="M160.65383,138.82587l-4.54166,-4.54166" fill="none" stroke="#000000" stroke-width="1" stroke-linecap="round"/><path d="M108.29167,139.19045v3.00001h-9.2v5.2h-6.6v4.4h-5.8v2.2h-6v4.4h-17v4.2h-25.8" fill="none" stroke="#ff00b3" stroke-width="1.5" stroke-linecap="round"/><path d="M114.69167,138.59048h-6" fill="none" stroke="#ff00b3" stroke-width="1.5" stroke-linecap="round"/><g stroke-width="1" stroke-linecap="butt"><path d="M66.54168,162.67501v-7.63506h10.38506v7.63506z" fill="#00ff0e" stroke="#000000"/><path d="M66.54168,156.50561v-1.46566h10.33582v1.46566z" fill="#ff0000" stroke="#000000"/><text transform="translate(68.96573,156.301) scale(0.03472,0.03472)" font-size="40" xml:space="preserve" fill="#000000" stroke="#000000" font-family="Sans Serif" font-weight="normal" text-anchor="start"><tspan x="0" dy="0">国家高速</tspan></text><text transform="translate(67.45446,159.69804) scale(0.07541,0.07541)" font-size="40" xml:space="preserve" fill="#000000" stroke="none" font-family="Sans Serif" font-weight="normal" text-anchor="start"><tspan x="0" dy="0">G0711</tspan></text><text transform="translate(68.45821,161.59398) scale(0.03813,0.03813)" font-size="40" xml:space="preserve" fill="#000000" stroke="#000000" font-family="Sans Serif" font-weight="normal" text-anchor="start"><tspan x="0" dy="0">喀什支线</tspan></text></g></g></g></svg>