<svg version="1.1" xmlns="http://www.w3.org/2000/svg" xmlns:xlink="http://www.w3.org/1999/xlink" width="209.2" height="47.83506" viewBox="0,0,209.2,47.83506"><g transform="translate(-147.65,-116.46494)"><g stroke-miterlimit="10"><g><path d="M356.1,152.975h-10v-2.3h-10.575v3.625l-2.325,2.325h-2.1h-18.05l-3.35,3.35h-13.7v-6.4h-4h-19.4v-2.8h-12.3v-1.2h-16v-2h-15.2v-5.1h-7.9l-34,-0.9h-21.9v-20.1h-2.1h-14.8" fill="none" stroke="#007bff" stroke-width="1.5" stroke-linecap="round"/><path d="M198,138.225c0,-2.18152 1.76847,-3.95 3.95,-3.95c2.18152,0 3.95,1.76847 3.95,3.95c0,2.18152 -1.76848,3.95 -3.95,3.95c-2.18152,0 -3.95,-1.76848 -3.95,-3.95z" fill="none" stroke="#007bff" stroke-width="1.5" stroke-linecap="butt"/><path d="M205.7,146.425c0,-2.18152 1.76848,-3.95 3.95,-3.95c2.18152,0 3.95,1.76848 3.95,3.95c0,2.18152 -1.76847,3.95 -3.95,3.95c-2.18152,0 -3.95,-1.76847 -3.95,-3.95z" fill="none" stroke="#007bff" stroke-width="1.5" stroke-linecap="butt"/><g stroke-width="1" stroke-linecap="butt"><path d="M151.38719,124.6v-7.63506h7.63506v7.63506z" fill="#00ff0e" stroke="#000000"/><path d="M151.38719,118.4306v-1.46566h7.66915v1.46566z" fill="#ff0000" stroke="#000000"/><text transform="translate(152.47791,118.14266) scale(0.03472,0.03472)" font-size="40" xml:space="preserve" fill="#000000" stroke="#000000" font-family="Sans Serif" font-weight="normal" text-anchor="start"><tspan x="0" dy="0">国家高速</tspan></text><text transform="translate(152.88973,121.87155) scale(0.08301,0.08301)" font-size="40" xml:space="preserve" fill="#000000" stroke="none" font-family="Sans Serif" font-weight="normal" text-anchor="start"><tspan x="0" dy="0">G7</tspan></text><text transform="translate(152.13707,124.10231) scale(0.03813,0.03813)" font-size="40" xml:space="preserve" fill="#000000" stroke="#000000" font-family="Sans Serif" font-weight="normal" text-anchor="start"><tspan x="0" dy="0">京新高速</tspan></text></g><g stroke-width="1" stroke-linecap="butt"><path d="M186.18719,145.2v-7.63506h7.63506v7.63506z" fill="#00ff0e" stroke="#000000"/><path d="M186.18719,139.0306v-1.46566h7.66915v1.46566z" fill="#ff0000" stroke="#000000"/><text transform="translate(187.27791,138.74266) scale(0.03472,0.03472)" font-size="40" xml:space="preserve" fill="#000000" stroke="#000000" font-family="Sans Serif" font-weight="normal" text-anchor="start"><tspan x="0" dy="0">国家高速</tspan></text><text transform="translate(187.68973,142.47155) scale(0.08301,0.08301)" font-size="40" xml:space="preserve" fill="#000000" stroke="none" font-family="Sans Serif" font-weight="normal" text-anchor="start"><tspan x="0" dy="0">G7</tspan></text><text transform="translate(186.93706,144.70231) scale(0.03813,0.03813)" font-size="40" xml:space="preserve" fill="#000000" stroke="#000000" font-family="Sans Serif" font-weight="normal" text-anchor="start"><tspan x="0" dy="0">京新高速</tspan></text></g><g stroke-width="1" stroke-linecap="butt"><path d="M247.98719,152.8v-7.63506h7.63506v7.63506z" fill="#00ff0e" stroke="#000000"/><path d="M247.98719,146.6306v-1.46566h7.66915v1.46566z" fill="#ff0000" stroke="#000000"/><text transform="translate(249.07791,146.34266) scale(0.03472,0.03472)" font-size="40" xml:space="preserve" fill="#000000" stroke="#000000" font-family="Sans Serif" font-weight="normal" text-anchor="start"><tspan x="0" dy="0">国家高速</tspan></text><text transform="translate(249.48973,150.07154) scale(0.08301,0.08301)" font-size="40" xml:space="preserve" fill="#000000" stroke="none" font-family="Sans Serif" font-weight="normal" text-anchor="start"><tspan x="0" dy="0">G7</tspan></text><text transform="translate(248.73707,152.30231) scale(0.03813,0.03813)" font-size="40" xml:space="preserve" fill="#000000" stroke="#000000" font-family="Sans Serif" font-weight="normal" text-anchor="start"><tspan x="0" dy="0">京新高速</tspan></text></g><g stroke-width="1" stroke-linecap="butt"><path d="M298.38719,163.8v-7.63506h7.63506v7.63506z" fill="#00ff0e" stroke="#000000"/><path d="M298.38719,157.6306v-1.46566h7.66915v1.46566z" fill="#ff0000" stroke="#000000"/><text transform="translate(299.47791,157.34266) scale(0.03472,0.03472)" font-size="40" xml:space="preserve" fill="#000000" stroke="#000000" font-family="Sans Serif" font-weight="normal" text-anchor="start"><tspan x="0" dy="0">国家高速</tspan></text><text transform="translate(299.88973,161.07154) scale(0.08301,0.08301)" font-size="40" xml:space="preserve" fill="#000000" stroke="none" font-family="Sans Serif" font-weight="normal" text-anchor="start"><tspan x="0" dy="0">G7</tspan></text><text transform="translate(299.13707,163.30231) scale(0.03813,0.03813)" font-size="40" xml:space="preserve" fill="#000000" stroke="#000000" font-family="Sans Serif" font-weight="normal" text-anchor="start"><tspan x="0" dy="0">京新高速</tspan></text></g><g stroke-width="1" stroke-linecap="butt"><path d="M337.18719,154.6v-7.63506h7.63506v7.63506z" fill="#00ff0e" stroke="#000000"/><path d="M337.18719,148.4306v-1.46566h7.66915v1.46566z" fill="#ff0000" stroke="#000000"/><text transform="translate(338.2779,148.14266) scale(0.03472,0.03472)" font-size="40" xml:space="preserve" fill="#000000" stroke="#000000" font-family="Sans Serif" font-weight="normal" text-anchor="start"><tspan x="0" dy="0">国家高速</tspan></text><text transform="translate(338.68973,151.87155) scale(0.08301,0.08301)" font-size="40" xml:space="preserve" fill="#000000" stroke="none" font-family="Sans Serif" font-weight="normal" text-anchor="start"><tspan x="0" dy="0">G7</tspan></text><text transform="translate(337.93707,154.10231) scale(0.03813,0.03813)" font-size="40" xml:space="preserve" fill="#000000" stroke="#000000" font-family="Sans Serif" font-weight="normal" text-anchor="start"><tspan x="0" dy="0">京新高速</tspan></text></g></g></g></g></svg>