<svg version="1.1" xmlns="http://www.w3.org/2000/svg" xmlns:xlink="http://www.w3.org/1999/xlink" width="182" height="47.125" viewBox="0,0,182,47.125"><g transform="translate(-170.25,-256.70833)"><g stroke-miterlimit="10"><path d="M351.5,295.45833h-16.25v4h-76.25v-5.75h-9l-8.5,-13.5h-7.5l-1.25,-1.25v-6.5l3.75,-6h6.25l1.25,-1.5l0.5,-1.5l-2,-1.25h-52.5l-5.5,3.375h-6.875l-2.125,-2.125h-4.5v-6" fill="none" stroke="#00ff58" stroke-width="1.5" stroke-linecap="round"/><g stroke-width="1" stroke-linecap="butt"><path d="M207.02223,265.58333v-7.63506h7.63506v7.63506z" fill="#00ff0e" stroke="#000000"/><path d="M207.02223,259.41393v-1.46566h7.66915v1.46566z" fill="#ff0000" stroke="#000000"/><text transform="translate(208.11294,259.12599) scale(0.03472,0.03472)" font-size="40" xml:space="preserve" fill="#000000" stroke="#000000" font-family="Sans Serif" font-weight="normal" text-anchor="start"><tspan x="0" dy="0">国家高速</tspan></text><text transform="translate(207.60168,262.9318) scale(0.08301,0.08301)" font-size="40" xml:space="preserve" fill="#000000" stroke="none" font-family="Sans Serif" font-weight="normal" text-anchor="start"><tspan x="0" dy="0">G14</tspan></text><text transform="translate(207.77211,265.08564) scale(0.03813,0.03813)" font-size="40" xml:space="preserve" fill="#000000" stroke="#000000" font-family="Sans Serif" font-weight="normal" text-anchor="start"><tspan x="0" dy="0">沪拉高速</tspan></text></g><g stroke-width="1" stroke-linecap="butt"><path d="M268.02223,303.33333v-7.63506h7.63506v7.63506z" fill="#00ff0e" stroke="#000000"/><path d="M268.02223,297.16393v-1.46566h7.66915v1.46566z" fill="#ff0000" stroke="#000000"/><text transform="translate(269.11294,296.87599) scale(0.03472,0.03472)" font-size="40" xml:space="preserve" fill="#000000" stroke="#000000" font-family="Sans Serif" font-weight="normal" text-anchor="start"><tspan x="0" dy="0">国家高速</tspan></text><text transform="translate(268.60168,300.6818) scale(0.08301,0.08301)" font-size="40" xml:space="preserve" fill="#000000" stroke="none" font-family="Sans Serif" font-weight="normal" text-anchor="start"><tspan x="0" dy="0">G14</tspan></text><text transform="translate(268.77211,302.83564) scale(0.03813,0.03813)" font-size="40" xml:space="preserve" fill="#000000" stroke="#000000" font-family="Sans Serif" font-weight="normal" text-anchor="start"><tspan x="0" dy="0">沪拉高速</tspan></text></g><g stroke-width="1" stroke-linecap="butt"><path d="M338.77223,298.83333v-7.63506h7.63506v7.63506z" fill="#00ff0e" stroke="#000000"/><path d="M338.77223,292.66393v-1.46566h7.66915v1.46566z" fill="#ff0000" stroke="#000000"/><text transform="translate(339.86294,292.37599) scale(0.03472,0.03472)" font-size="40" xml:space="preserve" fill="#000000" stroke="#000000" font-family="Sans Serif" font-weight="normal" text-anchor="start"><tspan x="0" dy="0">国家高速</tspan></text><text transform="translate(339.35168,296.1818) scale(0.08301,0.08301)" font-size="40" xml:space="preserve" fill="#000000" stroke="none" font-family="Sans Serif" font-weight="normal" text-anchor="start"><tspan x="0" dy="0">G14</tspan></text><text transform="translate(339.52211,298.33564) scale(0.03813,0.03813)" font-size="40" xml:space="preserve" fill="#000000" stroke="#000000" font-family="Sans Serif" font-weight="normal" text-anchor="start"><tspan x="0" dy="0">沪拉高速</tspan></text></g></g></g></svg>