<svg version="1.1" xmlns="http://www.w3.org/2000/svg" xmlns:xlink="http://www.w3.org/1999/xlink" width="27.50249" height="138.5" viewBox="0,0,27.50249,138.5"><g transform="translate(-324.26579,-126.7401)"><g stroke-miterlimit="10"><path d="M328.71193,127.4901v50.33334" fill="none" stroke="#ff0050" stroke-width="1.5" stroke-linecap="round"/><g stroke-width="1" stroke-linecap="butt"><path d="M324.76579,150.17344v-7.63506h7.63506v7.63506z" fill="#00ff0e" stroke="#000000"/><path d="M324.76579,144.00404v-1.46566h7.66915v1.46566z" fill="#ff0000" stroke="#000000"/><text transform="translate(325.8565,143.7161) scale(0.03472,0.03472)" font-size="40" xml:space="preserve" fill="#000000" stroke="#000000" font-family="Sans Serif" font-weight="normal" text-anchor="start"><tspan x="0" dy="0">国家高速</tspan></text><text transform="translate(325.435,147.44498) scale(0.08301,0.08301)" font-size="40" xml:space="preserve" fill="#000000" stroke="none" font-family="Sans Serif" font-weight="normal" text-anchor="start"><tspan x="0" dy="0">G55</tspan></text><text transform="translate(325.51567,149.67575) scale(0.03813,0.03813)" font-size="40" xml:space="preserve" fill="#000000" stroke="#000000" font-family="Sans Serif" font-weight="normal" text-anchor="start"><tspan x="0" dy="0">二广高速</tspan></text></g><path d="M347.04527,250.65677v13.83333" fill="none" stroke="#ff0050" stroke-width="1.5" stroke-linecap="round"/><g stroke-width="1" stroke-linecap="butt"><path d="M343.59913,260.8401v-7.63506h7.63506v7.63506z" fill="#00ff0e" stroke="#000000"/><path d="M343.59913,254.6707v-1.46566h7.66915v1.46566z" fill="#ff0000" stroke="#000000"/><text transform="translate(344.68984,254.38276) scale(0.03472,0.03472)" font-size="40" xml:space="preserve" fill="#000000" stroke="#000000" font-family="Sans Serif" font-weight="normal" text-anchor="start"><tspan x="0" dy="0">国家高速</tspan></text><text transform="translate(344.26833,258.11165) scale(0.08301,0.08301)" font-size="40" xml:space="preserve" fill="#000000" stroke="none" font-family="Sans Serif" font-weight="normal" text-anchor="start"><tspan x="0" dy="0">G55</tspan></text><text transform="translate(344.349,260.34241) scale(0.03813,0.03813)" font-size="40" xml:space="preserve" fill="#000000" stroke="#000000" font-family="Sans Serif" font-weight="normal" text-anchor="start"><tspan x="0" dy="0">二广高速</tspan></text></g></g></g></svg>