<svg version="1.1" xmlns="http://www.w3.org/2000/svg" xmlns:xlink="http://www.w3.org/1999/xlink" width="308.95455" height="140.24667" viewBox="0,0,308.95455,140.24667"><g transform="translate(-85.52273,-110.03777)"><g stroke-miterlimit="10"><g><path d="M86.27273,121.07991h13.27273v-6.36364h16.09091v24h14.54546v1.72727h2.54545v-1h5.27273v-3.54545h8.36364v3.54545h10.18182v12.18182h31.54545v3.45454h10.81818v3.09091h11.81818v5.54546h28.45455v3.45454h3.54545v6.72727h2.18182v2.90909v2.18182h70.54545h13.36364v8.81819h18.36364v39.72727v22h2.45454l1.90909,-1.90909v-3l2.18182,-2.18182h40" fill="none" stroke="#00e0ff" stroke-width="1.5" stroke-linecap="round"/><g stroke-width="1" stroke-linecap="butt"><path d="M104.30606,118.17284v-7.63506h7.63506v7.63506z" fill="#00ff0e" stroke="#000000"/><path d="M104.30606,112.00344v-1.46566h7.66915v1.46566z" fill="#ff0000" stroke="#000000"/><text transform="translate(105.39676,111.7155) scale(0.03472,0.03472)" font-size="40" xml:space="preserve" fill="#000000" stroke="#000000" font-family="Sans Serif" font-weight="normal" text-anchor="start"><tspan x="0" dy="0">国家高速</tspan></text><text transform="translate(104.88551,115.52131) scale(0.08301,0.08301)" font-size="40" xml:space="preserve" fill="#000000" stroke="none" font-family="Sans Serif" font-weight="normal" text-anchor="start"><tspan x="0" dy="0">G30</tspan></text><text transform="translate(105.05593,117.67515) scale(0.03813,0.03813)" font-size="40" xml:space="preserve" fill="#000000" stroke="#000000" font-family="Sans Serif" font-weight="normal" text-anchor="start"><tspan x="0" dy="0">连霍高速</tspan></text></g><g stroke-width="1" stroke-linecap="butt"><path d="M118.50606,143.17284v-7.63506h7.63506v7.63506z" fill="#00ff0e" stroke="#000000"/><path d="M118.50606,137.00344v-1.46566h7.66915v1.46566z" fill="#ff0000" stroke="#000000"/><text transform="translate(119.59678,136.71549) scale(0.03472,0.03472)" font-size="40" xml:space="preserve" fill="#000000" stroke="#000000" font-family="Sans Serif" font-weight="normal" text-anchor="start"><tspan x="0" dy="0">国家高速</tspan></text><text transform="translate(119.08551,140.5213) scale(0.08301,0.08301)" font-size="40" xml:space="preserve" fill="#000000" stroke="none" font-family="Sans Serif" font-weight="normal" text-anchor="start"><tspan x="0" dy="0">G30</tspan></text><text transform="translate(119.25592,142.67514) scale(0.03813,0.03813)" font-size="40" xml:space="preserve" fill="#000000" stroke="#000000" font-family="Sans Serif" font-weight="normal" text-anchor="start"><tspan x="0" dy="0">连霍高速</tspan></text></g><g stroke-width="1" stroke-linecap="butt"><path d="M166.10605,155.97283v-7.63506h7.63506v7.63506z" fill="#00ff0e" stroke="#000000"/><path d="M166.10605,149.80343v-1.46566h7.66915v1.46566z" fill="#ff0000" stroke="#000000"/><text transform="translate(167.19676,149.51549) scale(0.03472,0.03472)" font-size="40" xml:space="preserve" fill="#000000" stroke="#000000" font-family="Sans Serif" font-weight="normal" text-anchor="start"><tspan x="0" dy="0">国家高速</tspan></text><text transform="translate(166.68551,153.32131) scale(0.08301,0.08301)" font-size="40" xml:space="preserve" fill="#000000" stroke="none" font-family="Sans Serif" font-weight="normal" text-anchor="start"><tspan x="0" dy="0">G30</tspan></text><text transform="translate(166.85592,155.47515) scale(0.03813,0.03813)" font-size="40" xml:space="preserve" fill="#000000" stroke="#000000" font-family="Sans Serif" font-weight="normal" text-anchor="start"><tspan x="0" dy="0">连霍高速</tspan></text></g><g stroke-width="1" stroke-linecap="butt"><path d="M223.10606,167.97283v-7.63506h7.63506v7.63506z" fill="#00ff0e" stroke="#000000"/><path d="M223.10606,161.80343v-1.46566h7.66915v1.46566z" fill="#ff0000" stroke="#000000"/><text transform="translate(224.19678,161.51549) scale(0.03472,0.03472)" font-size="40" xml:space="preserve" fill="#000000" stroke="#000000" font-family="Sans Serif" font-weight="normal" text-anchor="start"><tspan x="0" dy="0">国家高速</tspan></text><text transform="translate(223.68551,165.32131) scale(0.08301,0.08301)" font-size="40" xml:space="preserve" fill="#000000" stroke="none" font-family="Sans Serif" font-weight="normal" text-anchor="start"><tspan x="0" dy="0">G30</tspan></text><text transform="translate(223.85593,167.47515) scale(0.03813,0.03813)" font-size="40" xml:space="preserve" fill="#000000" stroke="#000000" font-family="Sans Serif" font-weight="normal" text-anchor="start"><tspan x="0" dy="0">连霍高速</tspan></text></g><g stroke-width="1" stroke-linecap="butt"><path d="M281.50606,181.77284v-7.63506h7.63506v7.63506z" fill="#00ff0e" stroke="#000000"/><path d="M281.50606,175.60344v-1.46566h7.66915v1.46566z" fill="#ff0000" stroke="#000000"/><text transform="translate(282.59678,175.3155) scale(0.03472,0.03472)" font-size="40" xml:space="preserve" fill="#000000" stroke="#000000" font-family="Sans Serif" font-weight="normal" text-anchor="start"><tspan x="0" dy="0">国家高速</tspan></text><text transform="translate(282.08551,179.12131) scale(0.08301,0.08301)" font-size="40" xml:space="preserve" fill="#000000" stroke="none" font-family="Sans Serif" font-weight="normal" text-anchor="start"><tspan x="0" dy="0">G30</tspan></text><text transform="translate(282.25593,181.27515) scale(0.03813,0.03813)" font-size="40" xml:space="preserve" fill="#000000" stroke="#000000" font-family="Sans Serif" font-weight="normal" text-anchor="start"><tspan x="0" dy="0">连霍高速</tspan></text></g><g stroke-width="1" stroke-linecap="butt"><path d="M343.30605,226.37284v-7.63506h7.63506v7.63506z" fill="#00ff0e" stroke="#000000"/><path d="M343.30605,220.20344v-1.46566h7.66915v1.46566z" fill="#ff0000" stroke="#000000"/><text transform="translate(344.39676,219.9155) scale(0.03472,0.03472)" font-size="40" xml:space="preserve" fill="#000000" stroke="#000000" font-family="Sans Serif" font-weight="normal" text-anchor="start"><tspan x="0" dy="0">国家高速</tspan></text><text transform="translate(343.8855,223.72131) scale(0.08301,0.08301)" font-size="40" xml:space="preserve" fill="#000000" stroke="none" font-family="Sans Serif" font-weight="normal" text-anchor="start"><tspan x="0" dy="0">G30</tspan></text><text transform="translate(344.05593,225.87514) scale(0.03813,0.03813)" font-size="40" xml:space="preserve" fill="#000000" stroke="#000000" font-family="Sans Serif" font-weight="normal" text-anchor="start"><tspan x="0" dy="0">连霍高速</tspan></text></g><g stroke-width="1" stroke-linecap="butt"><path d="M366.90606,245.77284v-7.63506h7.63506v7.63506z" fill="#00ff0e" stroke="#000000"/><path d="M366.90606,239.60344v-1.46566h7.66915v1.46566z" fill="#ff0000" stroke="#000000"/><text transform="translate(367.99678,239.3155) scale(0.03472,0.03472)" font-size="40" xml:space="preserve" fill="#000000" stroke="#000000" font-family="Sans Serif" font-weight="normal" text-anchor="start"><tspan x="0" dy="0">国家高速</tspan></text><text transform="translate(367.48551,243.1213) scale(0.08301,0.08301)" font-size="40" xml:space="preserve" fill="#000000" stroke="none" font-family="Sans Serif" font-weight="normal" text-anchor="start"><tspan x="0" dy="0">G30</tspan></text><text transform="translate(367.65593,245.27514) scale(0.03813,0.03813)" font-size="40" xml:space="preserve" fill="#000000" stroke="#000000" font-family="Sans Serif" font-weight="normal" text-anchor="start"><tspan x="0" dy="0">连霍高速</tspan></text></g></g></g></g></svg>